<mxfile host="Electron" modified="2023-10-18T23:43:28.025Z" agent="Mozilla/5.0 (X11; Linux x86_64) AppleWebKit/537.36 (KHTML, like Gecko) draw.io/22.0.2 Chrome/114.0.5735.289 Electron/25.8.4 Safari/537.36" etag="S1FI74u7sg0x3t_6S85R" version="22.0.2" type="device">
  <diagram name="Connection and Upload" id="fo18u6Ch1KVScq3Fo-Wy">
    <mxGraphModel dx="1906" dy="1611" grid="1" gridSize="10" guides="1" tooltips="1" connect="1" arrows="1" fold="1" page="1" pageScale="1" pageWidth="800" pageHeight="350" background="#999999" math="0" shadow="0">
      <root>
        <object label="" description="Flow chart of sensor node connection and upload process." rev="1.1" id="0">
          <mxCell />
        </object>
        <object label="Title Block" id="1">
          <mxCell style="locked=1;" parent="0" />
        </object>
        <mxCell id="h7L3MlKvrl_dhOmhB3lf-10" value="Prepared with: draw.io v22.0.2" style="strokeWidth=1;shadow=0;dashed=0;align=center;html=1;shape=mxgraph.mockup.text.textBox;fontColor=#666666;align=left;fontSize=17;spacingLeft=4;spacingTop=-3;whiteSpace=wrap;strokeColor=#333333;mainText=;fillColor=none;fontFamily=Open Sans;movable=1;resizable=1;rotatable=1;deletable=1;editable=1;locked=0;connectable=1;" parent="1" vertex="1">
          <mxGeometry x="220" y="300" width="280" height="30" as="geometry" />
        </mxCell>
        <object label="&lt;div align=&quot;left&quot;&gt;Sheet %pagenumber%/%pagecount%&lt;/div&gt;" placeholders="1" id="h7L3MlKvrl_dhOmhB3lf-12">
          <mxCell style="strokeWidth=1;shadow=0;dashed=0;align=left;html=1;shape=mxgraph.mockup.text.textBox;fontColor=#666666;align=left;fontSize=17;spacingLeft=4;spacingTop=-3;whiteSpace=wrap;strokeColor=#333333;mainText=;fillColor=none;fontFamily=Open Sans;movable=1;resizable=1;rotatable=1;deletable=1;editable=1;locked=0;connectable=1;" parent="1" vertex="1">
            <mxGeometry x="60" y="300" width="160" height="30" as="geometry" />
          </mxCell>
        </object>
        <object label="Date: &lt;font style=&quot;font-size: 17px;&quot;&gt;%date{ddd mmm dd yyyy HH:MM:ss}%&lt;/font&gt;" placeholders="1" id="h7L3MlKvrl_dhOmhB3lf-13">
          <mxCell style="strokeWidth=1;shadow=0;dashed=0;align=center;html=1;shape=mxgraph.mockup.text.textBox;fontColor=#666666;align=left;fontSize=17;spacingLeft=4;spacingTop=-3;whiteSpace=wrap;strokeColor=#333333;mainText=;fillColor=none;fontFamily=Open Sans;movable=1;resizable=1;rotatable=1;deletable=1;editable=1;locked=0;connectable=1;" parent="1" vertex="1">
            <mxGeometry x="500" y="300" width="280" height="30" as="geometry" />
          </mxCell>
        </object>
        <object label="&lt;b&gt;Title: %page%&lt;/b&gt;" placeholders="1" id="h7L3MlKvrl_dhOmhB3lf-14">
          <mxCell style="strokeWidth=1;shadow=0;dashed=0;align=center;html=1;shape=mxgraph.mockup.text.textBox;fontColor=#666666;align=left;fontSize=17;spacingLeft=4;spacingTop=-3;whiteSpace=wrap;strokeColor=#333333;mainText=;fillColor=none;fontFamily=Open Sans;movable=1;resizable=1;rotatable=1;deletable=1;editable=1;locked=0;connectable=1;" parent="1" vertex="1">
            <mxGeometry x="60" y="240" width="720" height="30" as="geometry" />
          </mxCell>
        </object>
        <object label="Filename: %filename%" placeholders="1" id="h7L3MlKvrl_dhOmhB3lf-15">
          <mxCell style="strokeWidth=1;shadow=0;dashed=0;align=center;html=1;shape=mxgraph.mockup.text.textBox;fontColor=#666666;align=left;fontSize=17;spacingLeft=4;spacingTop=-3;whiteSpace=wrap;strokeColor=#333333;mainText=;fillColor=none;fontFamily=Open Sans;movable=1;resizable=1;rotatable=1;deletable=1;editable=1;locked=0;connectable=1;" parent="1" vertex="1">
            <mxGeometry x="60" y="270" width="440" height="30" as="geometry" />
          </mxCell>
        </object>
        <object label="&lt;div align=&quot;left&quot;&gt;%description%&lt;/div&gt;" placeholders="1" id="h7L3MlKvrl_dhOmhB3lf-16">
          <mxCell style="strokeWidth=1;shadow=0;dashed=0;html=1;shape=mxgraph.mockup.text.textBox;fontColor=#666666;align=left;verticalAlign=top;fontSize=12;spacingLeft=4;spacingTop=-3;whiteSpace=wrap;strokeColor=#333333;mainText=;fillColor=none;fontFamily=Open Sans;movable=1;resizable=1;rotatable=1;deletable=1;editable=1;locked=0;connectable=1;" parent="1" vertex="1">
            <mxGeometry x="60" y="200" width="720" height="40" as="geometry" />
          </mxCell>
        </object>
        <object label="&lt;b&gt;Rev: %rev%&lt;br&gt;&lt;/b&gt;" placeholders="1" id="EyKvBmyPNv_MzgSUc5b6-1">
          <mxCell style="strokeWidth=1;shadow=0;dashed=0;align=center;html=1;shape=mxgraph.mockup.text.textBox;fontColor=#666666;align=left;fontSize=17;spacingLeft=4;spacingTop=-3;whiteSpace=wrap;strokeColor=#333333;mainText=;fillColor=none;fontFamily=Open Sans;movable=1;resizable=1;rotatable=1;deletable=1;editable=1;locked=0;connectable=1;" parent="1" vertex="1">
            <mxGeometry x="500" y="270" width="280" height="30" as="geometry" />
          </mxCell>
        </object>
        <object label="Drawing Frame" id="2jkEU8j2_UPUL1MGRyPS-1">
          <mxCell style="locked=1;" parent="0" />
        </object>
        <mxCell id="2jkEU8j2_UPUL1MGRyPS-2" value="" style="rounded=0;whiteSpace=wrap;html=1;fillColor=none;strokeWidth=3;movable=1;resizable=1;rotatable=1;deletable=1;editable=1;locked=0;connectable=1;" parent="2jkEU8j2_UPUL1MGRyPS-1" vertex="1">
          <mxGeometry x="-60" y="-430" width="840" height="760" as="geometry" />
        </mxCell>
        <object label="Document" id="NbdiYjX3MhI7OpqD2NvG-1">
          <mxCell parent="0" />
        </object>
        <mxCell id="PINzFg8CK9Q2xGxRfYvV-2" value="S" style="strokeWidth=2;html=1;shape=mxgraph.flowchart.start_2;whiteSpace=wrap;fontFamily=Open Sans;fillColor=#E6E6E6;" parent="NbdiYjX3MhI7OpqD2NvG-1" vertex="1">
          <mxGeometry y="-370" width="40" height="40" as="geometry" />
        </mxCell>
        <mxCell id="PINzFg8CK9Q2xGxRfYvV-8" value="No" style="edgeStyle=orthogonalEdgeStyle;rounded=0;orthogonalLoop=1;jettySize=auto;html=1;fontFamily=Open Sans;" parent="NbdiYjX3MhI7OpqD2NvG-1" source="PINzFg8CK9Q2xGxRfYvV-5" target="PINzFg8CK9Q2xGxRfYvV-7" edge="1">
          <mxGeometry x="-0.913" relative="1" as="geometry">
            <mxPoint as="offset" />
          </mxGeometry>
        </mxCell>
        <mxCell id="PINzFg8CK9Q2xGxRfYvV-9" value="Yes" style="edgeStyle=orthogonalEdgeStyle;rounded=0;orthogonalLoop=1;jettySize=auto;html=1;entryX=0;entryY=0.5;entryDx=0;entryDy=0;fontFamily=Open Sans;" parent="NbdiYjX3MhI7OpqD2NvG-1" source="PINzFg8CK9Q2xGxRfYvV-5" target="MNRwYcwlJc8vZSp2Yxgr-1" edge="1">
          <mxGeometry x="-0.2857" relative="1" as="geometry">
            <mxPoint as="offset" />
            <mxPoint x="120" y="-340" as="targetPoint" />
          </mxGeometry>
        </mxCell>
        <mxCell id="PINzFg8CK9Q2xGxRfYvV-5" value="&lt;font&gt;# Sensor Readings &amp;gt; High Water Mark?&lt;/font&gt;" style="strokeWidth=2;html=1;shape=mxgraph.flowchart.decision;whiteSpace=wrap;fontFamily=Open Sans;fillColor=#E6E6E6;" parent="NbdiYjX3MhI7OpqD2NvG-1" vertex="1">
          <mxGeometry x="-30" y="-300" width="100" height="100" as="geometry" />
        </mxCell>
        <mxCell id="PINzFg8CK9Q2xGxRfYvV-6" style="edgeStyle=orthogonalEdgeStyle;rounded=0;orthogonalLoop=1;jettySize=auto;html=1;entryX=0.5;entryY=0;entryDx=0;entryDy=0;entryPerimeter=0;fontFamily=Open Sans;" parent="NbdiYjX3MhI7OpqD2NvG-1" source="PINzFg8CK9Q2xGxRfYvV-2" target="PINzFg8CK9Q2xGxRfYvV-5" edge="1">
          <mxGeometry relative="1" as="geometry" />
        </mxCell>
        <mxCell id="PINzFg8CK9Q2xGxRfYvV-7" value="End" style="strokeWidth=2;html=1;shape=mxgraph.flowchart.terminator;whiteSpace=wrap;fontFamily=Open Sans;fillColor=#E6E6E6;" parent="NbdiYjX3MhI7OpqD2NvG-1" vertex="1">
          <mxGeometry x="-20" y="150" width="80" height="40" as="geometry" />
        </mxCell>
        <mxCell id="PINzFg8CK9Q2xGxRfYvV-12" value="No" style="edgeStyle=orthogonalEdgeStyle;rounded=0;orthogonalLoop=1;jettySize=auto;html=1;fontFamily=Open Sans;" parent="NbdiYjX3MhI7OpqD2NvG-1" source="PINzFg8CK9Q2xGxRfYvV-10" target="PINzFg8CK9Q2xGxRfYvV-7" edge="1">
          <mxGeometry x="-0.8776" relative="1" as="geometry">
            <mxPoint as="offset" />
          </mxGeometry>
        </mxCell>
        <mxCell id="PINzFg8CK9Q2xGxRfYvV-14" value="Yes" style="edgeStyle=orthogonalEdgeStyle;rounded=0;orthogonalLoop=1;jettySize=auto;html=1;entryX=0;entryY=0.5;entryDx=0;entryDy=0;fontFamily=Open Sans;" parent="NbdiYjX3MhI7OpqD2NvG-1" source="PINzFg8CK9Q2xGxRfYvV-10" target="MNRwYcwlJc8vZSp2Yxgr-2" edge="1">
          <mxGeometry x="-0.5" relative="1" as="geometry">
            <mxPoint as="offset" />
            <mxPoint x="280" y="-340" as="targetPoint" />
          </mxGeometry>
        </mxCell>
        <mxCell id="PINzFg8CK9Q2xGxRfYvV-10" value="Connection Successful?" style="strokeWidth=2;html=1;shape=mxgraph.flowchart.decision;whiteSpace=wrap;fontFamily=Open Sans;fillColor=#E6E6E6;" parent="NbdiYjX3MhI7OpqD2NvG-1" vertex="1">
          <mxGeometry x="120" y="-220" width="100" height="100" as="geometry" />
        </mxCell>
        <mxCell id="PINzFg8CK9Q2xGxRfYvV-11" style="edgeStyle=orthogonalEdgeStyle;rounded=0;orthogonalLoop=1;jettySize=auto;html=1;entryX=0.5;entryY=0;entryDx=0;entryDy=0;entryPerimeter=0;fontFamily=Open Sans;" parent="NbdiYjX3MhI7OpqD2NvG-1" source="MNRwYcwlJc8vZSp2Yxgr-1" target="PINzFg8CK9Q2xGxRfYvV-10" edge="1">
          <mxGeometry relative="1" as="geometry">
            <mxPoint x="170" y="-310" as="sourcePoint" />
          </mxGeometry>
        </mxCell>
        <mxCell id="PINzFg8CK9Q2xGxRfYvV-16" style="edgeStyle=orthogonalEdgeStyle;rounded=0;orthogonalLoop=1;jettySize=auto;html=1;fontFamily=Open Sans;" parent="NbdiYjX3MhI7OpqD2NvG-1" source="MNRwYcwlJc8vZSp2Yxgr-2" target="PINzFg8CK9Q2xGxRfYvV-15" edge="1">
          <mxGeometry relative="1" as="geometry">
            <mxPoint x="330" y="-310" as="sourcePoint" />
          </mxGeometry>
        </mxCell>
        <mxCell id="PINzFg8CK9Q2xGxRfYvV-17" value="No" style="edgeStyle=orthogonalEdgeStyle;rounded=0;orthogonalLoop=1;jettySize=auto;html=1;fontFamily=Open Sans;exitX=0;exitY=0.5;exitDx=0;exitDy=0;exitPerimeter=0;entryX=0.5;entryY=0;entryDx=0;entryDy=0;entryPerimeter=0;" parent="NbdiYjX3MhI7OpqD2NvG-1" source="PINzFg8CK9Q2xGxRfYvV-15" target="PINzFg8CK9Q2xGxRfYvV-7" edge="1">
          <mxGeometry x="-0.8298" relative="1" as="geometry">
            <mxPoint as="offset" />
            <mxPoint x="220" y="-60" as="targetPoint" />
            <Array as="points">
              <mxPoint x="260" y="-130" />
              <mxPoint x="260" y="-70" />
              <mxPoint x="20" y="-70" />
            </Array>
          </mxGeometry>
        </mxCell>
        <mxCell id="PINzFg8CK9Q2xGxRfYvV-19" value="Yes" style="edgeStyle=orthogonalEdgeStyle;rounded=0;orthogonalLoop=1;jettySize=auto;html=1;entryX=0;entryY=0.5;entryDx=0;entryDy=0;fontFamily=Open Sans;" parent="NbdiYjX3MhI7OpqD2NvG-1" source="PINzFg8CK9Q2xGxRfYvV-15" target="PINzFg8CK9Q2xGxRfYvV-18" edge="1">
          <mxGeometry x="-0.5686" relative="1" as="geometry">
            <mxPoint as="offset" />
          </mxGeometry>
        </mxCell>
        <mxCell id="PINzFg8CK9Q2xGxRfYvV-15" value="Connection Successful?" style="strokeWidth=2;html=1;shape=mxgraph.flowchart.decision;whiteSpace=wrap;fontFamily=Open Sans;fillColor=#E6E6E6;" parent="NbdiYjX3MhI7OpqD2NvG-1" vertex="1">
          <mxGeometry x="280" y="-180" width="100" height="100" as="geometry" />
        </mxCell>
        <mxCell id="PINzFg8CK9Q2xGxRfYvV-21" style="edgeStyle=orthogonalEdgeStyle;rounded=0;orthogonalLoop=1;jettySize=auto;html=1;fontFamily=Open Sans;" parent="NbdiYjX3MhI7OpqD2NvG-1" source="PINzFg8CK9Q2xGxRfYvV-18" target="PINzFg8CK9Q2xGxRfYvV-20" edge="1">
          <mxGeometry relative="1" as="geometry" />
        </mxCell>
        <mxCell id="PINzFg8CK9Q2xGxRfYvV-18" value="Transmit Sensor Reading (json)" style="rounded=1;whiteSpace=wrap;html=1;absoluteArcSize=1;arcSize=14;strokeWidth=2;fontFamily=Open Sans;fillColor=#E6E6E6;" parent="NbdiYjX3MhI7OpqD2NvG-1" vertex="1">
          <mxGeometry x="440" y="-370" width="100" height="60" as="geometry" />
        </mxCell>
        <mxCell id="PINzFg8CK9Q2xGxRfYvV-22" value="No" style="edgeStyle=orthogonalEdgeStyle;rounded=0;orthogonalLoop=1;jettySize=auto;html=1;fontFamily=Open Sans;exitX=0;exitY=0.5;exitDx=0;exitDy=0;exitPerimeter=0;" parent="NbdiYjX3MhI7OpqD2NvG-1" source="PINzFg8CK9Q2xGxRfYvV-20" target="MNRwYcwlJc8vZSp2Yxgr-3" edge="1">
          <mxGeometry x="-0.6364" relative="1" as="geometry">
            <Array as="points">
              <mxPoint x="400" y="-90" />
              <mxPoint x="400" />
            </Array>
            <mxPoint as="offset" />
            <mxPoint x="140" y="-10" as="targetPoint" />
          </mxGeometry>
        </mxCell>
        <mxCell id="PINzFg8CK9Q2xGxRfYvV-24" value="Yes" style="edgeStyle=orthogonalEdgeStyle;rounded=0;orthogonalLoop=1;jettySize=auto;html=1;entryX=0;entryY=0.5;entryDx=0;entryDy=0;fontFamily=Open Sans;" parent="NbdiYjX3MhI7OpqD2NvG-1" source="PINzFg8CK9Q2xGxRfYvV-20" target="PINzFg8CK9Q2xGxRfYvV-23" edge="1">
          <mxGeometry x="-0.6875" relative="1" as="geometry">
            <mxPoint as="offset" />
          </mxGeometry>
        </mxCell>
        <mxCell id="PINzFg8CK9Q2xGxRfYvV-20" value="Transmit OK?" style="strokeWidth=2;html=1;shape=mxgraph.flowchart.decision;whiteSpace=wrap;fontFamily=Open Sans;fillColor=#E6E6E6;" parent="NbdiYjX3MhI7OpqD2NvG-1" vertex="1">
          <mxGeometry x="440" y="-140" width="100" height="100" as="geometry" />
        </mxCell>
        <mxCell id="PINzFg8CK9Q2xGxRfYvV-28" style="edgeStyle=orthogonalEdgeStyle;rounded=0;orthogonalLoop=1;jettySize=auto;html=1;fontFamily=Open Sans;" parent="NbdiYjX3MhI7OpqD2NvG-1" source="PINzFg8CK9Q2xGxRfYvV-23" target="PINzFg8CK9Q2xGxRfYvV-25" edge="1">
          <mxGeometry relative="1" as="geometry" />
        </mxCell>
        <mxCell id="PINzFg8CK9Q2xGxRfYvV-23" value="Wait Response" style="rounded=1;whiteSpace=wrap;html=1;absoluteArcSize=1;arcSize=14;strokeWidth=2;fontFamily=Open Sans;fillColor=#E6E6E6;" parent="NbdiYjX3MhI7OpqD2NvG-1" vertex="1">
          <mxGeometry x="600" y="-370" width="100" height="60" as="geometry" />
        </mxCell>
        <mxCell id="PINzFg8CK9Q2xGxRfYvV-26" style="edgeStyle=orthogonalEdgeStyle;rounded=0;orthogonalLoop=1;jettySize=auto;html=1;fontFamily=Open Sans;" parent="NbdiYjX3MhI7OpqD2NvG-1" source="PINzFg8CK9Q2xGxRfYvV-25" target="MNRwYcwlJc8vZSp2Yxgr-3" edge="1">
          <mxGeometry relative="1" as="geometry">
            <mxPoint x="240" y="70" as="targetPoint" />
            <Array as="points">
              <mxPoint x="560" y="-20" />
              <mxPoint x="560" />
            </Array>
          </mxGeometry>
        </mxCell>
        <mxCell id="PINzFg8CK9Q2xGxRfYvV-27" value="Timeout / Error" style="edgeLabel;html=1;align=center;verticalAlign=middle;resizable=0;points=[];fontFamily=Open Sans;" parent="PINzFg8CK9Q2xGxRfYvV-26" vertex="1" connectable="0">
          <mxGeometry x="-0.8415" y="-3" relative="1" as="geometry">
            <mxPoint x="-17" y="-7" as="offset" />
          </mxGeometry>
        </mxCell>
        <mxCell id="PINzFg8CK9Q2xGxRfYvV-31" value="OK" style="edgeStyle=orthogonalEdgeStyle;rounded=0;orthogonalLoop=1;jettySize=auto;html=1;fontFamily=Open Sans;" parent="NbdiYjX3MhI7OpqD2NvG-1" source="PINzFg8CK9Q2xGxRfYvV-25" target="PINzFg8CK9Q2xGxRfYvV-30" edge="1">
          <mxGeometry x="-0.2" relative="1" as="geometry">
            <mxPoint as="offset" />
          </mxGeometry>
        </mxCell>
        <mxCell id="PINzFg8CK9Q2xGxRfYvV-25" value="Response" style="strokeWidth=2;html=1;shape=mxgraph.flowchart.decision;whiteSpace=wrap;fontFamily=Open Sans;fillColor=#E6E6E6;" parent="NbdiYjX3MhI7OpqD2NvG-1" vertex="1">
          <mxGeometry x="600" y="-70" width="100" height="100" as="geometry" />
        </mxCell>
        <mxCell id="PINzFg8CK9Q2xGxRfYvV-32" value="Yes" style="edgeStyle=orthogonalEdgeStyle;rounded=0;orthogonalLoop=1;jettySize=auto;html=1;entryX=0.5;entryY=0;entryDx=0;entryDy=0;exitX=0.5;exitY=1;exitDx=0;exitDy=0;exitPerimeter=0;fontFamily=Open Sans;" parent="NbdiYjX3MhI7OpqD2NvG-1" source="PINzFg8CK9Q2xGxRfYvV-33" target="PINzFg8CK9Q2xGxRfYvV-18" edge="1">
          <mxGeometry x="-0.9204" relative="1" as="geometry">
            <Array as="points">
              <mxPoint x="520" y="170" />
              <mxPoint x="750" y="170" />
              <mxPoint x="750" y="-400" />
              <mxPoint x="490" y="-400" />
            </Array>
            <mxPoint as="offset" />
          </mxGeometry>
        </mxCell>
        <mxCell id="PINzFg8CK9Q2xGxRfYvV-34" style="edgeStyle=orthogonalEdgeStyle;rounded=0;orthogonalLoop=1;jettySize=auto;html=1;fontFamily=Open Sans;" parent="NbdiYjX3MhI7OpqD2NvG-1" source="PINzFg8CK9Q2xGxRfYvV-30" target="PINzFg8CK9Q2xGxRfYvV-33" edge="1">
          <mxGeometry relative="1" as="geometry" />
        </mxCell>
        <mxCell id="PINzFg8CK9Q2xGxRfYvV-30" value="Delete Sensor Reading" style="rounded=1;whiteSpace=wrap;html=1;absoluteArcSize=1;arcSize=14;strokeWidth=2;fontFamily=Open Sans;fillColor=#E6E6E6;" parent="NbdiYjX3MhI7OpqD2NvG-1" vertex="1">
          <mxGeometry x="600" y="70" width="100" height="60" as="geometry" />
        </mxCell>
        <mxCell id="PINzFg8CK9Q2xGxRfYvV-33" value="More Readings?" style="strokeWidth=2;html=1;shape=mxgraph.flowchart.decision;whiteSpace=wrap;fontFamily=Open Sans;fillColor=#E6E6E6;" parent="NbdiYjX3MhI7OpqD2NvG-1" vertex="1">
          <mxGeometry x="470" y="50" width="100" height="100" as="geometry" />
        </mxCell>
        <mxCell id="PINzFg8CK9Q2xGxRfYvV-35" value="Yes" style="edgeStyle=orthogonalEdgeStyle;rounded=0;orthogonalLoop=1;jettySize=auto;html=1;fontFamily=Open Sans;" parent="NbdiYjX3MhI7OpqD2NvG-1" source="MNRwYcwlJc8vZSp2Yxgr-7" target="MNRwYcwlJc8vZSp2Yxgr-5" edge="1">
          <mxGeometry x="-0.2" relative="1" as="geometry">
            <mxPoint as="offset" />
            <mxPoint x="290" y="100" as="targetPoint" />
          </mxGeometry>
        </mxCell>
        <mxCell id="MNRwYcwlJc8vZSp2Yxgr-1" value="WiFi Connect" style="verticalLabelPosition=middle;verticalAlign=middle;html=1;shape=process;whiteSpace=wrap;rounded=1;size=0.14;arcSize=6;fontFamily=Open Sans;labelPosition=center;align=center;fillColor=#E6E6E6;" vertex="1" parent="NbdiYjX3MhI7OpqD2NvG-1">
          <mxGeometry x="120" y="-370" width="100" height="60" as="geometry" />
        </mxCell>
        <mxCell id="MNRwYcwlJc8vZSp2Yxgr-2" value="&lt;font style=&quot;font-size: 11px;&quot;&gt;TCP Connect (host, port=2880)&lt;/font&gt;" style="verticalLabelPosition=middle;verticalAlign=middle;html=1;shape=process;whiteSpace=wrap;rounded=1;size=0.14;arcSize=6;fontFamily=Open Sans;labelPosition=center;align=center;fillColor=#E6E6E6;" vertex="1" parent="NbdiYjX3MhI7OpqD2NvG-1">
          <mxGeometry x="280" y="-370" width="100" height="60" as="geometry" />
        </mxCell>
        <mxCell id="MNRwYcwlJc8vZSp2Yxgr-3" value="&lt;font style=&quot;font-size: 11px;&quot;&gt;TCP Disconnect&lt;/font&gt;" style="verticalLabelPosition=middle;verticalAlign=middle;html=1;shape=process;whiteSpace=wrap;rounded=1;size=0.14;arcSize=6;fontFamily=Open Sans;labelPosition=center;align=center;fillColor=#E6E6E6;" vertex="1" parent="NbdiYjX3MhI7OpqD2NvG-1">
          <mxGeometry x="200" y="-30" width="100" height="60" as="geometry" />
        </mxCell>
        <mxCell id="MNRwYcwlJc8vZSp2Yxgr-4" style="edgeStyle=orthogonalEdgeStyle;rounded=0;orthogonalLoop=1;jettySize=auto;html=1;entryX=0.5;entryY=0;entryDx=0;entryDy=0;fontFamily=Open Sans;" edge="1" parent="NbdiYjX3MhI7OpqD2NvG-1" source="MNRwYcwlJc8vZSp2Yxgr-3" target="MNRwYcwlJc8vZSp2Yxgr-12">
          <mxGeometry relative="1" as="geometry" />
        </mxCell>
        <mxCell id="MNRwYcwlJc8vZSp2Yxgr-11" style="edgeStyle=orthogonalEdgeStyle;rounded=0;orthogonalLoop=1;jettySize=auto;html=1;exitX=0;exitY=0.5;exitDx=0;exitDy=0;" edge="1" parent="NbdiYjX3MhI7OpqD2NvG-1" source="MNRwYcwlJc8vZSp2Yxgr-12" target="PINzFg8CK9Q2xGxRfYvV-7">
          <mxGeometry relative="1" as="geometry" />
        </mxCell>
        <mxCell id="MNRwYcwlJc8vZSp2Yxgr-5" value="&lt;font style=&quot;font-size: 11px;&quot;&gt;Download Mode&lt;/font&gt;" style="verticalLabelPosition=middle;verticalAlign=middle;html=1;shape=process;whiteSpace=wrap;rounded=1;size=0.14;arcSize=6;fontFamily=Open Sans;labelPosition=center;align=center;fillColor=#E6E6E6;" vertex="1" parent="NbdiYjX3MhI7OpqD2NvG-1">
          <mxGeometry x="180" y="70" width="100" height="60" as="geometry" />
        </mxCell>
        <mxCell id="MNRwYcwlJc8vZSp2Yxgr-8" value="No" style="edgeStyle=orthogonalEdgeStyle;rounded=0;orthogonalLoop=1;jettySize=auto;html=1;fontFamily=Open Sans;" edge="1" parent="NbdiYjX3MhI7OpqD2NvG-1" source="PINzFg8CK9Q2xGxRfYvV-33" target="MNRwYcwlJc8vZSp2Yxgr-7">
          <mxGeometry relative="1" as="geometry">
            <mxPoint as="offset" />
            <mxPoint x="460" y="100" as="sourcePoint" />
            <mxPoint x="310" y="100" as="targetPoint" />
          </mxGeometry>
        </mxCell>
        <mxCell id="MNRwYcwlJc8vZSp2Yxgr-10" value="No" style="edgeStyle=orthogonalEdgeStyle;rounded=0;orthogonalLoop=1;jettySize=auto;html=1;exitX=0.5;exitY=1;exitDx=0;exitDy=0;exitPerimeter=0;fontFamily=Open Sans;" edge="1" parent="NbdiYjX3MhI7OpqD2NvG-1" source="MNRwYcwlJc8vZSp2Yxgr-7" target="PINzFg8CK9Q2xGxRfYvV-7">
          <mxGeometry x="-0.7574" relative="1" as="geometry">
            <mxPoint as="offset" />
          </mxGeometry>
        </mxCell>
        <mxCell id="MNRwYcwlJc8vZSp2Yxgr-7" value="Update Available?" style="strokeWidth=2;html=1;shape=mxgraph.flowchart.decision;whiteSpace=wrap;fontFamily=Open Sans;fillColor=#E6E6E6;" vertex="1" parent="NbdiYjX3MhI7OpqD2NvG-1">
          <mxGeometry x="330" y="50" width="100" height="100" as="geometry" />
        </mxCell>
        <mxCell id="MNRwYcwlJc8vZSp2Yxgr-13" value="" style="edgeStyle=orthogonalEdgeStyle;rounded=0;orthogonalLoop=1;jettySize=auto;html=1;" edge="1" parent="NbdiYjX3MhI7OpqD2NvG-1" source="MNRwYcwlJc8vZSp2Yxgr-5" target="MNRwYcwlJc8vZSp2Yxgr-12">
          <mxGeometry relative="1" as="geometry">
            <mxPoint x="170" y="100" as="sourcePoint" />
            <mxPoint x="20" y="150" as="targetPoint" />
          </mxGeometry>
        </mxCell>
        <mxCell id="MNRwYcwlJc8vZSp2Yxgr-12" value="WiFi Disconnect" style="verticalLabelPosition=middle;verticalAlign=middle;html=1;shape=process;whiteSpace=wrap;rounded=1;size=0.14;arcSize=6;fontFamily=Open Sans;labelPosition=center;align=center;fillColor=#E6E6E6;" vertex="1" parent="NbdiYjX3MhI7OpqD2NvG-1">
          <mxGeometry x="50" y="70" width="100" height="60" as="geometry" />
        </mxCell>
      </root>
    </mxGraphModel>
  </diagram>
</mxfile>
